<?xml version="1.0" encoding="windows-1252" standalone="no"?>
<svg xmlns="http://www.w3.org/2000/svg" xmlns:xlink="http://www.w3.org/1999/xlink" contentStyleType="text/css" height="774px" preserveAspectRatio="none" style="width:2163px;height:774px;background:#FFFFFF;" version="1.1" viewBox="0 0 2163 774" width="2163px" zoomAndPan="magnify"><defs/><g><!--cluster movie_app--><g id="cluster_movie_app"><path d="M8.5,330 L94.5,330 A3.75,3.75 0 0 1 97,332.5 L104,352.2969 L2153.5,352.2969 A2.5,2.5 0 0 1 2156,354.7969 L2156,574.5 A2.5,2.5 0 0 1 2153.5,577 L8.5,577 A2.5,2.5 0 0 1 6,574.5 L6,332.5 A2.5,2.5 0 0 1 8.5,330 " fill="none" style="stroke:#000000;stroke-width:1.5;"/><line style="stroke:#000000;stroke-width:1.5;" x1="6" x2="104" y1="352.2969" y2="352.2969"/><text fill="#000000" font-family="sans-serif" font-size="14" font-weight="bold" lengthAdjust="spacing" textLength="85" x="10" y="344.9951">movie_app</text></g><!--cluster button_layout.dart--><g id="cluster_button_layout.dart"><path d="M1963.5,405.5 L2119.5,405.5 A3.75,3.75 0 0 1 2122,408 L2129,427.7969 L2129.5,427.7969 A2.5,2.5 0 0 1 2132,430.2969 L2132,518 A2.5,2.5 0 0 1 2129.5,520.5 L1963.5,520.5 A2.5,2.5 0 0 1 1961,518 L1961,408 A2.5,2.5 0 0 1 1963.5,405.5 " fill="none" style="stroke:#000000;stroke-width:1.5;"/><line style="stroke:#000000;stroke-width:1.5;" x1="1961" x2="2129" y1="427.7969" y2="427.7969"/><text fill="#000000" font-family="sans-serif" font-size="14" font-weight="bold" lengthAdjust="spacing" textLength="155" x="1965" y="420.4951">button_layout.dart</text></g><!--cluster colors.dart--><g id="cluster_colors.dart"><path d="M994.5,373 L1085.5,373 A3.75,3.75 0 0 1 1088,375.5 L1095,395.2969 L1175.5,395.2969 A2.5,2.5 0 0 1 1178,397.7969 L1178,550.5 A2.5,2.5 0 0 1 1175.5,553 L994.5,553 A2.5,2.5 0 0 1 992,550.5 L992,375.5 A2.5,2.5 0 0 1 994.5,373 " fill="none" style="stroke:#000000;stroke-width:1.5;"/><line style="stroke:#000000;stroke-width:1.5;" x1="992" x2="1095" y1="395.2969" y2="395.2969"/><text fill="#000000" font-family="sans-serif" font-size="14" font-weight="bold" lengthAdjust="spacing" textLength="90" x="996" y="387.9951">colors.dart</text></g><!--cluster main.dart--><g id="cluster_main.dart"><path d="M216.5,381 L297.5,381 A3.75,3.75 0 0 1 300,383.5 L307,403.2969 L965.5,403.2969 A2.5,2.5 0 0 1 968,405.7969 L968,542.5 A2.5,2.5 0 0 1 965.5,545 L216.5,545 A2.5,2.5 0 0 1 214,542.5 L214,383.5 A2.5,2.5 0 0 1 216.5,381 " fill="none" style="stroke:#000000;stroke-width:1.5;"/><line style="stroke:#000000;stroke-width:1.5;" x1="214" x2="307" y1="403.2969" y2="403.2969"/><text fill="#000000" font-family="sans-serif" font-size="14" font-weight="bold" lengthAdjust="spacing" textLength="80" x="218" y="395.9951">main.dart</text></g><!--cluster options.dart--><g id="cluster_options.dart"><path d="M32.5,405.5 L135.5,405.5 A3.75,3.75 0 0 1 138,408 L145,427.7969 L187.5,427.7969 A2.5,2.5 0 0 1 190,430.2969 L190,518 A2.5,2.5 0 0 1 187.5,520.5 L32.5,520.5 A2.5,2.5 0 0 1 30,518 L30,408 A2.5,2.5 0 0 1 32.5,405.5 " fill="none" style="stroke:#000000;stroke-width:1.5;"/><line style="stroke:#000000;stroke-width:1.5;" x1="30" x2="145" y1="427.7969" y2="427.7969"/><text fill="#000000" font-family="sans-serif" font-size="14" font-weight="bold" lengthAdjust="spacing" textLength="102" x="34" y="420.4951">options.dart</text></g><!--cluster track_pad.dart--><g id="cluster_track_pad.dart"><path d="M1204.5,373 L1325.5,373 A3.75,3.75 0 0 1 1328,375.5 L1335,395.2969 L1934.5,395.2969 A2.5,2.5 0 0 1 1937,397.7969 L1937,550.5 A2.5,2.5 0 0 1 1934.5,553 L1204.5,553 A2.5,2.5 0 0 1 1202,550.5 L1202,375.5 A2.5,2.5 0 0 1 1204.5,373 " fill="none" style="stroke:#000000;stroke-width:1.5;"/><line style="stroke:#000000;stroke-width:1.5;" x1="1202" x2="1335" y1="395.2969" y2="395.2969"/><text fill="#000000" font-family="sans-serif" font-size="14" font-weight="bold" lengthAdjust="spacing" textLength="120" x="1206" y="387.9951">track_pad.dart</text></g><!--cluster flutter--><g id="cluster_flutter"><path d="M365.5,6 L420.5,6 A3.75,3.75 0 0 1 423,8.5 L430,28.2969 L972.5,28.2969 A2.5,2.5 0 0 1 975,30.7969 L975,303.5 A2.5,2.5 0 0 1 972.5,306 L365.5,306 A2.5,2.5 0 0 1 363,303.5 L363,8.5 A2.5,2.5 0 0 1 365.5,6 " fill="none" style="stroke:#000000;stroke-width:1.5;"/><line style="stroke:#000000;stroke-width:1.5;" x1="363" x2="430" y1="28.2969" y2="28.2969"/><text fill="#000000" font-family="sans-serif" font-size="14" font-weight="bold" lengthAdjust="spacing" textLength="54" x="367" y="20.9951">flutter</text></g><!--cluster src--><g id="cluster_src"><path d="M389.5,49 L415.5,49 A3.75,3.75 0 0 1 418,51.5 L425,71.2969 L948.5,71.2969 A2.5,2.5 0 0 1 951,73.7969 L951,279.5 A2.5,2.5 0 0 1 948.5,282 L389.5,282 A2.5,2.5 0 0 1 387,279.5 L387,51.5 A2.5,2.5 0 0 1 389.5,49 " fill="none" style="stroke:#000000;stroke-width:1.5;"/><line style="stroke:#000000;stroke-width:1.5;" x1="387" x2="425" y1="71.2969" y2="71.2969"/><text fill="#000000" font-family="sans-serif" font-size="14" font-weight="bold" lengthAdjust="spacing" textLength="25" x="391" y="63.9951">src</text></g><!--cluster widgets--><g id="cluster_widgets"><path d="M413.5,92 L478.5,92 A3.75,3.75 0 0 1 481,94.5 L488,114.2969 L924.5,114.2969 A2.5,2.5 0 0 1 927,116.7969 L927,255.5 A2.5,2.5 0 0 1 924.5,258 L413.5,258 A2.5,2.5 0 0 1 411,255.5 L411,94.5 A2.5,2.5 0 0 1 413.5,92 " fill="none" style="stroke:#000000;stroke-width:1.5;"/><line style="stroke:#000000;stroke-width:1.5;" x1="411" x2="488" y1="114.2969" y2="114.2969"/><text fill="#000000" font-family="sans-serif" font-size="14" font-weight="bold" lengthAdjust="spacing" textLength="64" x="415" y="106.9951">widgets</text></g><!--cluster framework.dart--><g id="cluster_framework.dart"><path d="M437.5,135 L565.5,135 A3.75,3.75 0 0 1 568,137.5 L575,157.2969 L900.5,157.2969 A2.5,2.5 0 0 1 903,159.7969 L903,231.5 A2.5,2.5 0 0 1 900.5,234 L437.5,234 A2.5,2.5 0 0 1 435,231.5 L435,137.5 A2.5,2.5 0 0 1 437.5,135 " fill="none" style="stroke:#000000;stroke-width:1.5;"/><line style="stroke:#000000;stroke-width:1.5;" x1="435" x2="575" y1="157.2969" y2="157.2969"/><text fill="#000000" font-family="sans-serif" font-size="14" font-weight="bold" lengthAdjust="spacing" textLength="127" x="439" y="149.9951">framework.dart</text></g><!--cluster dart--><g id="cluster_dart"><path d="M1012.5,601 L1048.5,601 A3.75,3.75 0 0 1 1051,603.5 L1058,623.2969 L1157.5,623.2969 A2.5,2.5 0 0 1 1160,625.7969 L1160,764.5 A2.5,2.5 0 0 1 1157.5,767 L1012.5,767 A2.5,2.5 0 0 1 1010,764.5 L1010,603.5 A2.5,2.5 0 0 1 1012.5,601 " fill="none" style="stroke:#000000;stroke-width:1.5;"/><line style="stroke:#000000;stroke-width:1.5;" x1="1010" x2="1058" y1="623.2969" y2="623.2969"/><text fill="#000000" font-family="sans-serif" font-size="14" font-weight="bold" lengthAdjust="spacing" textLength="35" x="1014" y="615.9951">dart</text></g><!--cluster ui--><g id="cluster_ui"><path d="M1036.5,644 L1052.5,644 A3.75,3.75 0 0 1 1055,646.5 L1062,666.2969 L1133.5,666.2969 A2.5,2.5 0 0 1 1136,668.7969 L1136,740.5 A2.5,2.5 0 0 1 1133.5,743 L1036.5,743 A2.5,2.5 0 0 1 1034,740.5 L1034,646.5 A2.5,2.5 0 0 1 1036.5,644 " fill="none" style="stroke:#000000;stroke-width:1.5;"/><line style="stroke:#000000;stroke-width:1.5;" x1="1034" x2="1062" y1="666.2969" y2="666.2969"/><text fill="#000000" font-family="sans-serif" font-size="14" font-weight="bold" lengthAdjust="spacing" textLength="15" x="1038" y="658.9951">ui</text></g><!--cluster null--><g id="cluster_null"><path d="M1506.5,644 L1537.5,644 A3.75,3.75 0 0 1 1540,646.5 L1547,666.2969 L1865.5,666.2969 A2.5,2.5 0 0 1 1868,668.7969 L1868,740.5 A2.5,2.5 0 0 1 1865.5,743 L1506.5,743 A2.5,2.5 0 0 1 1504,740.5 L1504,646.5 A2.5,2.5 0 0 1 1506.5,644 " fill="none" style="stroke:#000000;stroke-width:1.5;"/><line style="stroke:#000000;stroke-width:1.5;" x1="1504" x2="1547" y1="666.2969" y2="666.2969"/><text fill="#000000" font-family="sans-serif" font-size="14" font-weight="bold" lengthAdjust="spacing" textLength="30" x="1508" y="658.9951">null</text></g><!--class ButtonLayout--><g id="elem_ButtonLayout"><rect codeLine="3" fill="#F1F1F1" height="64.2969" id="ButtonLayout" rx="2.5" ry="2.5" style="stroke:#181818;stroke-width:0.5;" width="130" x="1977" y="440.5"/><ellipse cx="1992" cy="456.5" fill="#ADD1B2" rx="11" ry="11" style="stroke:#181818;stroke-width:1.0;"/><path d="M1994.3438,452.1719 C1993.4063,451.7344 1992.8125,451.5938 1991.9375,451.5938 C1989.3125,451.5938 1987.3125,453.6719 1987.3125,456.3906 L1987.3125,457.5156 C1987.3125,460.0938 1989.4219,461.9844 1992.3125,461.9844 C1993.5313,461.9844 1994.6875,461.6875 1995.4375,461.1406 C1996.0156,460.7344 1996.3438,460.2813 1996.3438,459.8906 C1996.3438,459.4375 1995.9531,459.0469 1995.4844,459.0469 C1995.2656,459.0469 1995.0625,459.125 1994.875,459.3125 C1994.4219,459.7969 1994.4219,459.7969 1994.2344,459.8906 C1993.8125,460.1563 1993.125,460.2813 1992.3594,460.2813 C1990.3125,460.2813 1989.0156,459.1875 1989.0156,457.4844 L1989.0156,456.3906 C1989.0156,454.6094 1990.2656,453.2969 1992,453.2969 C1992.5781,453.2969 1993.1875,453.4531 1993.6563,453.7031 C1994.1406,453.9844 1994.3125,454.2031 1994.4063,454.6094 C1994.4688,455.0156 1994.5,455.1406 1994.6406,455.2656 C1994.7813,455.4063 1995.0156,455.5156 1995.2344,455.5156 C1995.5,455.5156 1995.7656,455.375 1995.9375,455.1563 C1996.0469,455 1996.0781,454.8125 1996.0781,454.3906 L1996.0781,452.9688 C1996.0781,452.5313 1996.0625,452.4063 1995.9688,452.25 C1995.8125,451.9844 1995.5313,451.8438 1995.2344,451.8438 C1994.9375,451.8438 1994.7344,451.9375 1994.5156,452.25 L1994.3438,452.1719 Z " fill="#000000"/><text fill="#000000" font-family="sans-serif" font-size="14" lengthAdjust="spacing" textLength="98" x="2006" y="461.3467">ButtonLayout</text><line style="stroke:#181818;stroke-width:0.5;" x1="1978" x2="2106" y1="472.5" y2="472.5"/><line style="stroke:#181818;stroke-width:0.5;" x1="1978" x2="2106" y1="480.5" y2="480.5"/><ellipse cx="1988" cy="494.1484" fill="#84BE84" rx="3" ry="3" style="stroke:#038048;stroke-width:1.0;"/><text fill="#000000" font-family="sans-serif" font-size="14" lengthAdjust="spacing" textLength="101" x="1997" y="497.4951">Widget build()</text></g><!--class AppColors--><g id="elem_AppColors"><rect codeLine="9" fill="#F1F1F1" height="129.4844" id="AppColors" rx="2.5" ry="2.5" style="stroke:#181818;stroke-width:0.5;" width="153" x="1008.5" y="408"/><ellipse cx="1044.2" cy="424" fill="#ADD1B2" rx="11" ry="11" style="stroke:#181818;stroke-width:1.0;"/><path d="M1046.5438,419.6719 C1045.6063,419.2344 1045.0125,419.0938 1044.1375,419.0938 C1041.5125,419.0938 1039.5125,421.1719 1039.5125,423.8906 L1039.5125,425.0156 C1039.5125,427.5938 1041.6219,429.4844 1044.5125,429.4844 C1045.7313,429.4844 1046.8875,429.1875 1047.6375,428.6406 C1048.2156,428.2344 1048.5438,427.7813 1048.5438,427.3906 C1048.5438,426.9375 1048.1531,426.5469 1047.6844,426.5469 C1047.4656,426.5469 1047.2625,426.625 1047.075,426.8125 C1046.6219,427.2969 1046.6219,427.2969 1046.4344,427.3906 C1046.0125,427.6563 1045.325,427.7813 1044.5594,427.7813 C1042.5125,427.7813 1041.2156,426.6875 1041.2156,424.9844 L1041.2156,423.8906 C1041.2156,422.1094 1042.4656,420.7969 1044.2,420.7969 C1044.7781,420.7969 1045.3875,420.9531 1045.8563,421.2031 C1046.3406,421.4844 1046.5125,421.7031 1046.6063,422.1094 C1046.6688,422.5156 1046.7,422.6406 1046.8406,422.7656 C1046.9813,422.9063 1047.2156,423.0156 1047.4344,423.0156 C1047.7,423.0156 1047.9656,422.875 1048.1375,422.6563 C1048.2469,422.5 1048.2781,422.3125 1048.2781,421.8906 L1048.2781,420.4688 C1048.2781,420.0313 1048.2625,419.9063 1048.1688,419.75 C1048.0125,419.4844 1047.7313,419.3438 1047.4344,419.3438 C1047.1375,419.3438 1046.9344,419.4375 1046.7156,419.75 L1046.5438,419.6719 Z " fill="#000000"/><text fill="#000000" font-family="sans-serif" font-size="14" lengthAdjust="spacing" textLength="75" x="1062.8" y="428.8467">AppColors</text><line style="stroke:#181818;stroke-width:0.5;" x1="1009.5" x2="1160.5" y1="440" y2="440"/><ellipse cx="1019.5" cy="453.6484" fill="none" rx="3" ry="3" style="stroke:#038048;stroke-width:1.0;"/><text fill="#000000" font-family="sans-serif" font-size="14" lengthAdjust="spacing" text-decoration="underline" textLength="127" x="1028.5" y="456.9951">Color background</text><ellipse cx="1019.5" cy="469.9453" fill="none" rx="3" ry="3" style="stroke:#038048;stroke-width:1.0;"/><text fill="#000000" font-family="sans-serif" font-size="14" lengthAdjust="spacing" text-decoration="underline" textLength="73" x="1028.5" y="473.292">Color text</text><ellipse cx="1019.5" cy="486.2422" fill="none" rx="3" ry="3" style="stroke:#038048;stroke-width:1.0;"/><text fill="#000000" font-family="sans-serif" font-size="14" lengthAdjust="spacing" text-decoration="underline" textLength="79" x="1028.5" y="489.5889">Color icons</text><ellipse cx="1019.5" cy="502.5391" fill="none" rx="3" ry="3" style="stroke:#038048;stroke-width:1.0;"/><text fill="#000000" font-family="sans-serif" font-size="14" lengthAdjust="spacing" text-decoration="underline" textLength="113" x="1028.5" y="505.8857">Color inputGray</text><ellipse cx="1019.5" cy="518.8359" fill="none" rx="3" ry="3" style="stroke:#038048;stroke-width:1.0;"/><text fill="#000000" font-family="sans-serif" font-size="14" lengthAdjust="spacing" text-decoration="underline" textLength="119" x="1028.5" y="522.1826">Color inputBlack</text><line style="stroke:#181818;stroke-width:0.5;" x1="1009.5" x2="1160.5" y1="529.4844" y2="529.4844"/></g><!--class ArmController--><g id="elem_ArmController"><rect codeLine="19" fill="#F1F1F1" height="64.2969" id="ArmController" rx="2.5" ry="2.5" style="stroke:#181818;stroke-width:0.5;" width="135" x="230.5" y="440.5"/><ellipse cx="245.5" cy="456.5" fill="#ADD1B2" rx="11" ry="11" style="stroke:#181818;stroke-width:1.0;"/><path d="M247.8438,452.1719 C246.9063,451.7344 246.3125,451.5938 245.4375,451.5938 C242.8125,451.5938 240.8125,453.6719 240.8125,456.3906 L240.8125,457.5156 C240.8125,460.0938 242.9219,461.9844 245.8125,461.9844 C247.0313,461.9844 248.1875,461.6875 248.9375,461.1406 C249.5156,460.7344 249.8438,460.2813 249.8438,459.8906 C249.8438,459.4375 249.4531,459.0469 248.9844,459.0469 C248.7656,459.0469 248.5625,459.125 248.375,459.3125 C247.9219,459.7969 247.9219,459.7969 247.7344,459.8906 C247.3125,460.1563 246.625,460.2813 245.8594,460.2813 C243.8125,460.2813 242.5156,459.1875 242.5156,457.4844 L242.5156,456.3906 C242.5156,454.6094 243.7656,453.2969 245.5,453.2969 C246.0781,453.2969 246.6875,453.4531 247.1563,453.7031 C247.6406,453.9844 247.8125,454.2031 247.9063,454.6094 C247.9688,455.0156 248,455.1406 248.1406,455.2656 C248.2813,455.4063 248.5156,455.5156 248.7344,455.5156 C249,455.5156 249.2656,455.375 249.4375,455.1563 C249.5469,455 249.5781,454.8125 249.5781,454.3906 L249.5781,452.9688 C249.5781,452.5313 249.5625,452.4063 249.4688,452.25 C249.3125,451.9844 249.0313,451.8438 248.7344,451.8438 C248.4375,451.8438 248.2344,451.9375 248.0156,452.25 L247.8438,452.1719 Z " fill="#000000"/><text fill="#000000" font-family="sans-serif" font-size="14" lengthAdjust="spacing" textLength="103" x="259.5" y="461.3467">ArmController</text><line style="stroke:#181818;stroke-width:0.5;" x1="231.5" x2="364.5" y1="472.5" y2="472.5"/><line style="stroke:#181818;stroke-width:0.5;" x1="231.5" x2="364.5" y1="480.5" y2="480.5"/><ellipse cx="241.5" cy="494.1484" fill="#84BE84" rx="3" ry="3" style="stroke:#038048;stroke-width:1.0;"/><text fill="#000000" font-family="sans-serif" font-size="14" lengthAdjust="spacing" textLength="101" x="250.5" y="497.4951">Widget build()</text></g><!--class AppContents--><g id="elem_AppContents"><rect codeLine="25" fill="#F1F1F1" height="64.2969" id="AppContents" rx="2.5" ry="2.5" style="stroke:#181818;stroke-width:0.5;" width="271" x="680.5" y="440.5"/><ellipse cx="763.25" cy="456.5" fill="#ADD1B2" rx="11" ry="11" style="stroke:#181818;stroke-width:1.0;"/><path d="M765.5938,452.1719 C764.6563,451.7344 764.0625,451.5938 763.1875,451.5938 C760.5625,451.5938 758.5625,453.6719 758.5625,456.3906 L758.5625,457.5156 C758.5625,460.0938 760.6719,461.9844 763.5625,461.9844 C764.7813,461.9844 765.9375,461.6875 766.6875,461.1406 C767.2656,460.7344 767.5938,460.2813 767.5938,459.8906 C767.5938,459.4375 767.2031,459.0469 766.7344,459.0469 C766.5156,459.0469 766.3125,459.125 766.125,459.3125 C765.6719,459.7969 765.6719,459.7969 765.4844,459.8906 C765.0625,460.1563 764.375,460.2813 763.6094,460.2813 C761.5625,460.2813 760.2656,459.1875 760.2656,457.4844 L760.2656,456.3906 C760.2656,454.6094 761.5156,453.2969 763.25,453.2969 C763.8281,453.2969 764.4375,453.4531 764.9063,453.7031 C765.3906,453.9844 765.5625,454.2031 765.6563,454.6094 C765.7188,455.0156 765.75,455.1406 765.8906,455.2656 C766.0313,455.4063 766.2656,455.5156 766.4844,455.5156 C766.75,455.5156 767.0156,455.375 767.1875,455.1563 C767.2969,455 767.3281,454.8125 767.3281,454.3906 L767.3281,452.9688 C767.3281,452.5313 767.3125,452.4063 767.2188,452.25 C767.0625,451.9844 766.7813,451.8438 766.4844,451.8438 C766.1875,451.8438 765.9844,451.9375 765.7656,452.25 L765.5938,452.1719 Z " fill="#000000"/><text fill="#000000" font-family="sans-serif" font-size="14" lengthAdjust="spacing" textLength="97" x="783.75" y="461.3467">AppContents</text><line style="stroke:#181818;stroke-width:0.5;" x1="681.5" x2="950.5" y1="472.5" y2="472.5"/><line style="stroke:#181818;stroke-width:0.5;" x1="681.5" x2="950.5" y1="480.5" y2="480.5"/><ellipse cx="691.5" cy="494.1484" fill="#84BE84" rx="3" ry="3" style="stroke:#038048;stroke-width:1.0;"/><text fill="#000000" font-family="sans-serif" font-size="14" lengthAdjust="spacing" textLength="245" x="700.5" y="497.4951">_AppContentsState createState()</text></g><!--class _AppContentsState--><g id="elem__AppContentsState"><rect codeLine="31" fill="#F1F1F1" height="113.1875" id="_AppContentsState" rx="2.5" ry="2.5" style="stroke:#181818;stroke-width:0.5;" width="245" x="400.5" y="416"/><ellipse cx="446.75" cy="432" fill="#ADD1B2" rx="11" ry="11" style="stroke:#181818;stroke-width:1.0;"/><path d="M449.0938,427.6719 C448.1563,427.2344 447.5625,427.0938 446.6875,427.0938 C444.0625,427.0938 442.0625,429.1719 442.0625,431.8906 L442.0625,433.0156 C442.0625,435.5938 444.1719,437.4844 447.0625,437.4844 C448.2813,437.4844 449.4375,437.1875 450.1875,436.6406 C450.7656,436.2344 451.0938,435.7813 451.0938,435.3906 C451.0938,434.9375 450.7031,434.5469 450.2344,434.5469 C450.0156,434.5469 449.8125,434.625 449.625,434.8125 C449.1719,435.2969 449.1719,435.2969 448.9844,435.3906 C448.5625,435.6563 447.875,435.7813 447.1094,435.7813 C445.0625,435.7813 443.7656,434.6875 443.7656,432.9844 L443.7656,431.8906 C443.7656,430.1094 445.0156,428.7969 446.75,428.7969 C447.3281,428.7969 447.9375,428.9531 448.4063,429.2031 C448.8906,429.4844 449.0625,429.7031 449.1563,430.1094 C449.2188,430.5156 449.25,430.6406 449.3906,430.7656 C449.5313,430.9063 449.7656,431.0156 449.9844,431.0156 C450.25,431.0156 450.5156,430.875 450.6875,430.6563 C450.7969,430.5 450.8281,430.3125 450.8281,429.8906 L450.8281,428.4688 C450.8281,428.0313 450.8125,427.9063 450.7188,427.75 C450.5625,427.4844 450.2813,427.3438 449.9844,427.3438 C449.6875,427.3438 449.4844,427.4375 449.2656,427.75 L449.0938,427.6719 Z " fill="#000000"/><text fill="#000000" font-family="sans-serif" font-size="14" lengthAdjust="spacing" textLength="144" x="467.25" y="436.8467">_AppContentsState</text><line style="stroke:#181818;stroke-width:0.5;" x1="401.5" x2="644.5" y1="448" y2="448"/><ellipse cx="411.5" cy="461.6484" fill="none" rx="3" ry="3" style="stroke:#038048;stroke-width:1.0;"/><text fill="#000000" font-family="sans-serif" font-size="14" lengthAdjust="spacing" textLength="61" x="420.5" y="464.9951">double x</text><ellipse cx="411.5" cy="477.9453" fill="none" rx="3" ry="3" style="stroke:#038048;stroke-width:1.0;"/><text fill="#000000" font-family="sans-serif" font-size="14" lengthAdjust="spacing" textLength="61" x="420.5" y="481.292">double y</text><line style="stroke:#181818;stroke-width:0.5;" x1="401.5" x2="644.5" y1="488.5938" y2="488.5938"/><ellipse cx="411.5" cy="502.2422" fill="#84BE84" rx="3" ry="3" style="stroke:#038048;stroke-width:1.0;"/><text fill="#000000" font-family="sans-serif" font-size="14" lengthAdjust="spacing" textLength="219" x="420.5" y="505.5889">Future&lt;void&gt; sendCommand()</text><ellipse cx="411.5" cy="518.5391" fill="#84BE84" rx="3" ry="3" style="stroke:#038048;stroke-width:1.0;"/><text fill="#000000" font-family="sans-serif" font-size="14" lengthAdjust="spacing" textLength="101" x="420.5" y="521.8857">Widget build()</text></g><!--class OptionBar--><g id="elem_OptionBar"><rect codeLine="40" fill="#F1F1F1" height="64.2969" id="OptionBar" rx="2.5" ry="2.5" style="stroke:#181818;stroke-width:0.5;" width="127" x="46.5" y="440.5"/><ellipse cx="70.95" cy="456.5" fill="#ADD1B2" rx="11" ry="11" style="stroke:#181818;stroke-width:1.0;"/><path d="M73.2938,452.1719 C72.3563,451.7344 71.7625,451.5938 70.8875,451.5938 C68.2625,451.5938 66.2625,453.6719 66.2625,456.3906 L66.2625,457.5156 C66.2625,460.0938 68.3719,461.9844 71.2625,461.9844 C72.4813,461.9844 73.6375,461.6875 74.3875,461.1406 C74.9656,460.7344 75.2938,460.2813 75.2938,459.8906 C75.2938,459.4375 74.9031,459.0469 74.4344,459.0469 C74.2156,459.0469 74.0125,459.125 73.825,459.3125 C73.3719,459.7969 73.3719,459.7969 73.1844,459.8906 C72.7625,460.1563 72.075,460.2813 71.3094,460.2813 C69.2625,460.2813 67.9656,459.1875 67.9656,457.4844 L67.9656,456.3906 C67.9656,454.6094 69.2156,453.2969 70.95,453.2969 C71.5281,453.2969 72.1375,453.4531 72.6063,453.7031 C73.0906,453.9844 73.2625,454.2031 73.3563,454.6094 C73.4188,455.0156 73.45,455.1406 73.5906,455.2656 C73.7313,455.4063 73.9656,455.5156 74.1844,455.5156 C74.45,455.5156 74.7156,455.375 74.8875,455.1563 C74.9969,455 75.0281,454.8125 75.0281,454.3906 L75.0281,452.9688 C75.0281,452.5313 75.0125,452.4063 74.9188,452.25 C74.7625,451.9844 74.4813,451.8438 74.1844,451.8438 C73.8875,451.8438 73.6844,451.9375 73.4656,452.25 L73.2938,452.1719 Z " fill="#000000"/><text fill="#000000" font-family="sans-serif" font-size="14" lengthAdjust="spacing" textLength="74" x="87.05" y="461.3467">OptionBar</text><line style="stroke:#181818;stroke-width:0.5;" x1="47.5" x2="172.5" y1="472.5" y2="472.5"/><line style="stroke:#181818;stroke-width:0.5;" x1="47.5" x2="172.5" y1="480.5" y2="480.5"/><ellipse cx="57.5" cy="494.1484" fill="#84BE84" rx="3" ry="3" style="stroke:#038048;stroke-width:1.0;"/><text fill="#000000" font-family="sans-serif" font-size="14" lengthAdjust="spacing" textLength="101" x="66.5" y="497.4951">Widget build()</text></g><!--class TrackPad--><g id="elem_TrackPad"><rect codeLine="46" fill="#F1F1F1" height="113.1875" id="TrackPad" rx="2.5" ry="2.5" style="stroke:#181818;stroke-width:0.5;" width="469" x="1451.5" y="416"/><ellipse cx="1648.75" cy="432" fill="#ADD1B2" rx="11" ry="11" style="stroke:#181818;stroke-width:1.0;"/><path d="M1651.0938,427.6719 C1650.1563,427.2344 1649.5625,427.0938 1648.6875,427.0938 C1646.0625,427.0938 1644.0625,429.1719 1644.0625,431.8906 L1644.0625,433.0156 C1644.0625,435.5938 1646.1719,437.4844 1649.0625,437.4844 C1650.2813,437.4844 1651.4375,437.1875 1652.1875,436.6406 C1652.7656,436.2344 1653.0938,435.7813 1653.0938,435.3906 C1653.0938,434.9375 1652.7031,434.5469 1652.2344,434.5469 C1652.0156,434.5469 1651.8125,434.625 1651.625,434.8125 C1651.1719,435.2969 1651.1719,435.2969 1650.9844,435.3906 C1650.5625,435.6563 1649.875,435.7813 1649.1094,435.7813 C1647.0625,435.7813 1645.7656,434.6875 1645.7656,432.9844 L1645.7656,431.8906 C1645.7656,430.1094 1647.0156,428.7969 1648.75,428.7969 C1649.3281,428.7969 1649.9375,428.9531 1650.4063,429.2031 C1650.8906,429.4844 1651.0625,429.7031 1651.1563,430.1094 C1651.2188,430.5156 1651.25,430.6406 1651.3906,430.7656 C1651.5313,430.9063 1651.7656,431.0156 1651.9844,431.0156 C1652.25,431.0156 1652.5156,430.875 1652.6875,430.6563 C1652.7969,430.5 1652.8281,430.3125 1652.8281,429.8906 L1652.8281,428.4688 C1652.8281,428.0313 1652.8125,427.9063 1652.7188,427.75 C1652.5625,427.4844 1652.2813,427.3438 1651.9844,427.3438 C1651.6875,427.3438 1651.4844,427.4375 1651.2656,427.75 L1651.0938,427.6719 Z " fill="#000000"/><text fill="#000000" font-family="sans-serif" font-size="14" lengthAdjust="spacing" textLength="66" x="1669.25" y="436.8467">TrackPad</text><line style="stroke:#181818;stroke-width:0.5;" x1="1452.5" x2="1919.5" y1="448" y2="448"/><line style="stroke:#181818;stroke-width:0.5;" x1="1452.5" x2="1919.5" y1="456" y2="456"/><ellipse cx="1462.5" cy="469.6484" fill="#84BE84" rx="3" ry="3" style="stroke:#038048;stroke-width:1.0;"/><text fill="#000000" font-family="sans-serif" font-size="14" lengthAdjust="spacing" textLength="443" x="1471.5" y="472.9951">dynamic Function(double, double, double) onPositionSelected</text><ellipse cx="1462.5" cy="485.9453" fill="#84BE84" rx="3" ry="3" style="stroke:#038048;stroke-width:1.0;"/><text fill="#000000" font-family="sans-serif" font-size="14" lengthAdjust="spacing" textLength="214" x="1471.5" y="489.292">_TrackPadState createState()</text><rect fill="#F24D5C" height="6" style="stroke:#C82930;stroke-width:1.0;" width="6" x="1459.5" y="499.2422"/><text fill="#000000" font-family="sans-serif" font-size="14" lengthAdjust="spacing" textLength="177" x="1471.5" y="505.5889">void _handlePanUpdate()</text><ellipse cx="1462.5" cy="518.5391" fill="#84BE84" rx="3" ry="3" style="stroke:#038048;stroke-width:1.0;"/><text fill="#000000" font-family="sans-serif" font-size="14" lengthAdjust="spacing" textLength="233" x="1471.5" y="521.8857">Future&lt;void&gt; sendCoordinates()</text></g><!--class _TrackPadState--><g id="elem__TrackPadState"><rect codeLine="56" fill="#F1F1F1" height="129.4844" id="_TrackPadState" rx="2.5" ry="2.5" style="stroke:#181818;stroke-width:0.5;" width="198" x="1218" y="408"/><ellipse cx="1256.85" cy="424" fill="#ADD1B2" rx="11" ry="11" style="stroke:#181818;stroke-width:1.0;"/><path d="M1259.1938,419.6719 C1258.2563,419.2344 1257.6625,419.0938 1256.7875,419.0938 C1254.1625,419.0938 1252.1625,421.1719 1252.1625,423.8906 L1252.1625,425.0156 C1252.1625,427.5938 1254.2719,429.4844 1257.1625,429.4844 C1258.3813,429.4844 1259.5375,429.1875 1260.2875,428.6406 C1260.8656,428.2344 1261.1938,427.7813 1261.1938,427.3906 C1261.1938,426.9375 1260.8031,426.5469 1260.3344,426.5469 C1260.1156,426.5469 1259.9125,426.625 1259.725,426.8125 C1259.2719,427.2969 1259.2719,427.2969 1259.0844,427.3906 C1258.6625,427.6563 1257.975,427.7813 1257.2094,427.7813 C1255.1625,427.7813 1253.8656,426.6875 1253.8656,424.9844 L1253.8656,423.8906 C1253.8656,422.1094 1255.1156,420.7969 1256.85,420.7969 C1257.4281,420.7969 1258.0375,420.9531 1258.5063,421.2031 C1258.9906,421.4844 1259.1625,421.7031 1259.2563,422.1094 C1259.3188,422.5156 1259.35,422.6406 1259.4906,422.7656 C1259.6313,422.9063 1259.8656,423.0156 1260.0844,423.0156 C1260.35,423.0156 1260.6156,422.875 1260.7875,422.6563 C1260.8969,422.5 1260.9281,422.3125 1260.9281,421.8906 L1260.9281,420.4688 C1260.9281,420.0313 1260.9125,419.9063 1260.8188,419.75 C1260.6625,419.4844 1260.3813,419.3438 1260.0844,419.3438 C1259.7875,419.3438 1259.5844,419.4375 1259.3656,419.75 L1259.1938,419.6719 Z " fill="#000000"/><text fill="#000000" font-family="sans-serif" font-size="14" lengthAdjust="spacing" textLength="113" x="1276.15" y="428.8467">_TrackPadState</text><line style="stroke:#181818;stroke-width:0.5;" x1="1219" x2="1415" y1="440" y2="440"/><rect fill="none" height="6" style="stroke:#C82930;stroke-width:1.0;" width="6" x="1226" y="450.6484"/><text fill="#000000" font-family="sans-serif" font-size="14" lengthAdjust="spacing" textLength="126" x="1238" y="456.9951">double _xPosition</text><rect fill="none" height="6" style="stroke:#C82930;stroke-width:1.0;" width="6" x="1226" y="466.9453"/><text fill="#000000" font-family="sans-serif" font-size="14" lengthAdjust="spacing" textLength="126" x="1238" y="473.292">double _yPosition</text><ellipse cx="1229" cy="486.2422" fill="none" rx="3" ry="3" style="stroke:#038048;stroke-width:1.0;"/><text fill="#000000" font-family="sans-serif" font-size="14" lengthAdjust="spacing" textLength="128" x="1238" y="489.5889">double maxRange</text><line style="stroke:#181818;stroke-width:0.5;" x1="1219" x2="1415" y1="496.8906" y2="496.8906"/><ellipse cx="1229" cy="510.5391" fill="#84BE84" rx="3" ry="3" style="stroke:#038048;stroke-width:1.0;"/><text fill="#000000" font-family="sans-serif" font-size="14" lengthAdjust="spacing" textLength="101" x="1238" y="513.8857">Widget build()</text><rect fill="#F24D5C" height="6" style="stroke:#C82930;stroke-width:1.0;" width="6" x="1226" y="523.8359"/><text fill="#000000" font-family="sans-serif" font-size="14" lengthAdjust="spacing" textLength="172" x="1238" y="530.1826">double _clampPosition()</text></g><!--class StatelessWidget--><g id="elem_StatelessWidget"><rect fill="#F1F1F1" height="48" id="StatelessWidget" rx="2.5" ry="2.5" style="stroke:#181818;stroke-width:0.5;" width="151" x="451.5" y="170"/><ellipse cx="466.5" cy="186" fill="#ADD1B2" rx="11" ry="11" style="stroke:#181818;stroke-width:1.0;"/><path d="M468.8438,181.6719 C467.9063,181.2344 467.3125,181.0938 466.4375,181.0938 C463.8125,181.0938 461.8125,183.1719 461.8125,185.8906 L461.8125,187.0156 C461.8125,189.5938 463.9219,191.4844 466.8125,191.4844 C468.0313,191.4844 469.1875,191.1875 469.9375,190.6406 C470.5156,190.2344 470.8438,189.7813 470.8438,189.3906 C470.8438,188.9375 470.4531,188.5469 469.9844,188.5469 C469.7656,188.5469 469.5625,188.625 469.375,188.8125 C468.9219,189.2969 468.9219,189.2969 468.7344,189.3906 C468.3125,189.6563 467.625,189.7813 466.8594,189.7813 C464.8125,189.7813 463.5156,188.6875 463.5156,186.9844 L463.5156,185.8906 C463.5156,184.1094 464.7656,182.7969 466.5,182.7969 C467.0781,182.7969 467.6875,182.9531 468.1563,183.2031 C468.6406,183.4844 468.8125,183.7031 468.9063,184.1094 C468.9688,184.5156 469,184.6406 469.1406,184.7656 C469.2813,184.9063 469.5156,185.0156 469.7344,185.0156 C470,185.0156 470.2656,184.875 470.4375,184.6563 C470.5469,184.5 470.5781,184.3125 470.5781,183.8906 L470.5781,182.4688 C470.5781,182.0313 470.5625,181.9063 470.4688,181.75 C470.3125,181.4844 470.0313,181.3438 469.7344,181.3438 C469.4375,181.3438 469.2344,181.4375 469.0156,181.75 L468.8438,181.6719 Z " fill="#000000"/><text fill="#000000" font-family="sans-serif" font-size="14" lengthAdjust="spacing" textLength="119" x="480.5" y="190.8467">StatelessWidget</text><line style="stroke:#181818;stroke-width:0.5;" x1="452.5" x2="601.5" y1="202" y2="202"/><line style="stroke:#181818;stroke-width:0.5;" x1="452.5" x2="601.5" y1="210" y2="210"/></g><!--class StatefulWidget--><g id="elem_StatefulWidget"><rect fill="#F1F1F1" height="48" id="StatefulWidget" rx="2.5" ry="2.5" style="stroke:#181818;stroke-width:0.5;" width="142" x="745" y="170"/><ellipse cx="760" cy="186" fill="#ADD1B2" rx="11" ry="11" style="stroke:#181818;stroke-width:1.0;"/><path d="M762.3438,181.6719 C761.4063,181.2344 760.8125,181.0938 759.9375,181.0938 C757.3125,181.0938 755.3125,183.1719 755.3125,185.8906 L755.3125,187.0156 C755.3125,189.5938 757.4219,191.4844 760.3125,191.4844 C761.5313,191.4844 762.6875,191.1875 763.4375,190.6406 C764.0156,190.2344 764.3438,189.7813 764.3438,189.3906 C764.3438,188.9375 763.9531,188.5469 763.4844,188.5469 C763.2656,188.5469 763.0625,188.625 762.875,188.8125 C762.4219,189.2969 762.4219,189.2969 762.2344,189.3906 C761.8125,189.6563 761.125,189.7813 760.3594,189.7813 C758.3125,189.7813 757.0156,188.6875 757.0156,186.9844 L757.0156,185.8906 C757.0156,184.1094 758.2656,182.7969 760,182.7969 C760.5781,182.7969 761.1875,182.9531 761.6563,183.2031 C762.1406,183.4844 762.3125,183.7031 762.4063,184.1094 C762.4688,184.5156 762.5,184.6406 762.6406,184.7656 C762.7813,184.9063 763.0156,185.0156 763.2344,185.0156 C763.5,185.0156 763.7656,184.875 763.9375,184.6563 C764.0469,184.5 764.0781,184.3125 764.0781,183.8906 L764.0781,182.4688 C764.0781,182.0313 764.0625,181.9063 763.9688,181.75 C763.8125,181.4844 763.5313,181.3438 763.2344,181.3438 C762.9375,181.3438 762.7344,181.4375 762.5156,181.75 L762.3438,181.6719 Z " fill="#000000"/><text fill="#000000" font-family="sans-serif" font-size="14" lengthAdjust="spacing" textLength="110" x="774" y="190.8467">StatefulWidget</text><line style="stroke:#181818;stroke-width:0.5;" x1="746" x2="886" y1="202" y2="202"/><line style="stroke:#181818;stroke-width:0.5;" x1="746" x2="886" y1="210" y2="210"/></g><!--class State--><g id="elem_State"><rect fill="#F1F1F1" height="48" id="State" rx="2.5" ry="2.5" style="stroke:#181818;stroke-width:0.5;" width="72" x="638" y="170"/><ellipse cx="653" cy="186" fill="#ADD1B2" rx="11" ry="11" style="stroke:#181818;stroke-width:1.0;"/><path d="M655.3438,181.6719 C654.4063,181.2344 653.8125,181.0938 652.9375,181.0938 C650.3125,181.0938 648.3125,183.1719 648.3125,185.8906 L648.3125,187.0156 C648.3125,189.5938 650.4219,191.4844 653.3125,191.4844 C654.5313,191.4844 655.6875,191.1875 656.4375,190.6406 C657.0156,190.2344 657.3438,189.7813 657.3438,189.3906 C657.3438,188.9375 656.9531,188.5469 656.4844,188.5469 C656.2656,188.5469 656.0625,188.625 655.875,188.8125 C655.4219,189.2969 655.4219,189.2969 655.2344,189.3906 C654.8125,189.6563 654.125,189.7813 653.3594,189.7813 C651.3125,189.7813 650.0156,188.6875 650.0156,186.9844 L650.0156,185.8906 C650.0156,184.1094 651.2656,182.7969 653,182.7969 C653.5781,182.7969 654.1875,182.9531 654.6563,183.2031 C655.1406,183.4844 655.3125,183.7031 655.4063,184.1094 C655.4688,184.5156 655.5,184.6406 655.6406,184.7656 C655.7813,184.9063 656.0156,185.0156 656.2344,185.0156 C656.5,185.0156 656.7656,184.875 656.9375,184.6563 C657.0469,184.5 657.0781,184.3125 657.0781,183.8906 L657.0781,182.4688 C657.0781,182.0313 657.0625,181.9063 656.9688,181.75 C656.8125,181.4844 656.5313,181.3438 656.2344,181.3438 C655.9375,181.3438 655.7344,181.4375 655.5156,181.75 L655.3438,181.6719 Z " fill="#000000"/><text fill="#000000" font-family="sans-serif" font-size="14" lengthAdjust="spacing" textLength="40" x="667" y="190.8467">State</text><line style="stroke:#181818;stroke-width:0.5;" x1="639" x2="709" y1="202" y2="202"/><line style="stroke:#181818;stroke-width:0.5;" x1="639" x2="709" y1="210" y2="210"/></g><!--class Color--><g id="elem_Color"><rect fill="#F1F1F1" height="48" id="Color" rx="2.5" ry="2.5" style="stroke:#181818;stroke-width:0.5;" width="70" x="1050" y="679"/><ellipse cx="1065" cy="695" fill="#ADD1B2" rx="11" ry="11" style="stroke:#181818;stroke-width:1.0;"/><path d="M1067.3438,690.6719 C1066.4063,690.2344 1065.8125,690.0938 1064.9375,690.0938 C1062.3125,690.0938 1060.3125,692.1719 1060.3125,694.8906 L1060.3125,696.0156 C1060.3125,698.5938 1062.4219,700.4844 1065.3125,700.4844 C1066.5313,700.4844 1067.6875,700.1875 1068.4375,699.6406 C1069.0156,699.2344 1069.3438,698.7813 1069.3438,698.3906 C1069.3438,697.9375 1068.9531,697.5469 1068.4844,697.5469 C1068.2656,697.5469 1068.0625,697.625 1067.875,697.8125 C1067.4219,698.2969 1067.4219,698.2969 1067.2344,698.3906 C1066.8125,698.6563 1066.125,698.7813 1065.3594,698.7813 C1063.3125,698.7813 1062.0156,697.6875 1062.0156,695.9844 L1062.0156,694.8906 C1062.0156,693.1094 1063.2656,691.7969 1065,691.7969 C1065.5781,691.7969 1066.1875,691.9531 1066.6563,692.2031 C1067.1406,692.4844 1067.3125,692.7031 1067.4063,693.1094 C1067.4688,693.5156 1067.5,693.6406 1067.6406,693.7656 C1067.7813,693.9063 1068.0156,694.0156 1068.2344,694.0156 C1068.5,694.0156 1068.7656,693.875 1068.9375,693.6563 C1069.0469,693.5 1069.0781,693.3125 1069.0781,692.8906 L1069.0781,691.4688 C1069.0781,691.0313 1069.0625,690.9063 1068.9688,690.75 C1068.8125,690.4844 1068.5313,690.3438 1068.2344,690.3438 C1067.9375,690.3438 1067.7344,690.4375 1067.5156,690.75 L1067.3438,690.6719 Z " fill="#000000"/><text fill="#000000" font-family="sans-serif" font-size="14" lengthAdjust="spacing" textLength="38" x="1079" y="699.8467">Color</text><line style="stroke:#181818;stroke-width:0.5;" x1="1051" x2="1119" y1="711" y2="711"/><line style="stroke:#181818;stroke-width:0.5;" x1="1051" x2="1119" y1="719" y2="719"/></g><!--class dynamic Function(double, double, double)--><g id="elem_dynamic Function(double, double, double)"><rect fill="#F1F1F1" height="48" id="dynamic Function(double, double, double)" rx="2.5" ry="2.5" style="stroke:#181818;stroke-width:0.5;" width="331" x="1520.5" y="679"/><ellipse cx="1535.5" cy="695" fill="#ADD1B2" rx="11" ry="11" style="stroke:#181818;stroke-width:1.0;"/><path d="M1537.8438,690.6719 C1536.9063,690.2344 1536.3125,690.0938 1535.4375,690.0938 C1532.8125,690.0938 1530.8125,692.1719 1530.8125,694.8906 L1530.8125,696.0156 C1530.8125,698.5938 1532.9219,700.4844 1535.8125,700.4844 C1537.0313,700.4844 1538.1875,700.1875 1538.9375,699.6406 C1539.5156,699.2344 1539.8438,698.7813 1539.8438,698.3906 C1539.8438,697.9375 1539.4531,697.5469 1538.9844,697.5469 C1538.7656,697.5469 1538.5625,697.625 1538.375,697.8125 C1537.9219,698.2969 1537.9219,698.2969 1537.7344,698.3906 C1537.3125,698.6563 1536.625,698.7813 1535.8594,698.7813 C1533.8125,698.7813 1532.5156,697.6875 1532.5156,695.9844 L1532.5156,694.8906 C1532.5156,693.1094 1533.7656,691.7969 1535.5,691.7969 C1536.0781,691.7969 1536.6875,691.9531 1537.1563,692.2031 C1537.6406,692.4844 1537.8125,692.7031 1537.9063,693.1094 C1537.9688,693.5156 1538,693.6406 1538.1406,693.7656 C1538.2813,693.9063 1538.5156,694.0156 1538.7344,694.0156 C1539,694.0156 1539.2656,693.875 1539.4375,693.6563 C1539.5469,693.5 1539.5781,693.3125 1539.5781,692.8906 L1539.5781,691.4688 C1539.5781,691.0313 1539.5625,690.9063 1539.4688,690.75 C1539.3125,690.4844 1539.0313,690.3438 1538.7344,690.3438 C1538.4375,690.3438 1538.2344,690.4375 1538.0156,690.75 L1537.8438,690.6719 Z " fill="#000000"/><text fill="#000000" font-family="sans-serif" font-size="14" lengthAdjust="spacing" textLength="299" x="1549.5" y="699.8467">dynamic Function(double, double, double)</text><line style="stroke:#181818;stroke-width:0.5;" x1="1521.5" x2="1850.5" y1="711" y2="711"/><line style="stroke:#181818;stroke-width:0.5;" x1="1521.5" x2="1850.5" y1="719" y2="719"/></g><!--reverse link StatelessWidget to ButtonLayout--><g id="link_StatelessWidget_ButtonLayout"><path codeLine="7" d="M546.817,235.865 C562.669,263.482 587.744,297.765 621,314 C653.851,330.037 1904.61,305.045 1937,322 C1984.63,346.934 2015.22,404.389 2030.45,440.37 " fill="none" id="StatelessWidget-backto-ButtonLayout" style="stroke:#181818;stroke-width:1.0;"/><polygon fill="none" points="540.583,239.053,537.329,218.114,552.93,232.453,540.583,239.053" style="stroke:#181818;stroke-width:1.0;"/></g><!--reverse link AppColors to Color--><g id="link_AppColors_Color"><path codeLine="17" d="M1085,550.174 C1085,595.121 1085,648.8 1085,678.785 " fill="none" id="AppColors-backto-Color" style="stroke:#181818;stroke-width:1.0;"/><polygon fill="none" points="1085,537.15,1081,543.15,1085,549.15,1089,543.15,1085,537.15" style="stroke:#181818;stroke-width:1.0;"/></g><!--reverse link StatelessWidget to ArmController--><g id="link_StatelessWidget_ArmController"><path codeLine="23" d="M478.943,230.67 C449.043,254.397 411.076,287.459 383,322 C352.68,359.301 326.878,408.815 311.903,440.427 " fill="none" id="StatelessWidget-backto-ArmController" style="stroke:#181818;stroke-width:1.0;"/><polygon fill="none" points="474.953,224.905,495.043,218.168,483.539,235.963,474.953,224.905" style="stroke:#181818;stroke-width:1.0;"/></g><!--reverse link StatefulWidget to AppContents--><g id="link_StatefulWidget_AppContents"><path codeLine="29" d="M816,238.46 C816,294.616 816,391.011 816,440.376 " fill="none" id="StatefulWidget-backto-AppContents" style="stroke:#181818;stroke-width:1.0;"/><polygon fill="none" points="809,238.099,816,218.099,823,238.099,809,238.099" style="stroke:#181818;stroke-width:1.0;"/></g><!--reverse link State to _AppContentsState--><g id="link_State__AppContentsState"><path codeLine="38" d="M656.587,236.76 C646.571,259.868 633.353,288.905 620,314 C601.596,348.587 578.704,385.978 559.78,415.646 " fill="none" id="State-backto-_AppContentsState" style="stroke:#181818;stroke-width:1.0;"/><polygon fill="none" points="650.206,233.88,664.488,218.227,663.084,239.37,650.206,233.88" style="stroke:#181818;stroke-width:1.0;"/></g><!--reverse link StatelessWidget to OptionBar--><g id="link_StatelessWidget_OptionBar"><path codeLine="44" d="M432.077,217.988 C365.846,237.526 278.177,270.712 214,322 C173.37,354.47 142.013,406.94 124.789,440.301 " fill="none" id="StatelessWidget-backto-OptionBar" style="stroke:#181818;stroke-width:1.0;"/><polygon fill="none" points="430.305,211.214,451.457,212.477,434.134,224.68,430.305,211.214" style="stroke:#181818;stroke-width:1.0;"/></g><!--reverse link TrackPad to dynamic Function(double, double, double)--><g id="link_TrackPad_dynamic Function(double, double, double)"><path codeLine="53" d="M1686,542.153 C1686,588.565 1686,646.986 1686,678.778 " fill="none" id="TrackPad-backto-dynamic Function(double, double, double)" style="stroke:#181818;stroke-width:1.0;"/><polygon fill="none" points="1686,529.105,1682,535.105,1686,541.105,1690,535.105,1686,529.105" style="stroke:#181818;stroke-width:1.0;"/></g><!--reverse link StatefulWidget to TrackPad--><g id="link_StatefulWidget_TrackPad"><path codeLine="54" d="M907.135,204.137 C1030.1,218.596 1254.43,252.546 1434,322 C1495.68,345.856 1559.7,384.035 1607.78,415.839 " fill="none" id="StatefulWidget-backto-TrackPad" style="stroke:#181818;stroke-width:1.0;"/><polygon fill="none" points="906.279,211.085,887.203,201.861,907.868,197.176,906.279,211.085" style="stroke:#181818;stroke-width:1.0;"/></g><!--reverse link State to _TrackPadState--><g id="link_State__TrackPadState"><path codeLine="64" d="M681.518,237.927 C688.641,264.666 702.266,297.093 728,314 C748.897,327.73 1155.17,311.809 1178,322 C1218.29,339.983 1252.27,375.833 1276.54,407.919 " fill="none" id="State-backto-_TrackPadState" style="stroke:#181818;stroke-width:1.0;"/><polygon fill="none" points="674.619,239.153,677.093,218.108,688.283,236.102,674.619,239.153" style="stroke:#181818;stroke-width:1.0;"/></g><!--SRC=[lLHDRzim3BtxLmW-jSYo7o0K0vO0tMN0WcN3ZWOZAPbGMHGagatGzRzFbct0HPN5sugUB3tnuv6FT534BBGgE11ggnnu8FICyweI1a9WTOltMZNW7EUxI8IsCN32IEybUE9ybR7F6QhPOyNOueUMXnHs5xMHLzVLKrNLUvFCbESyUC7vGpO8dEzzIls0_cu8jYKWPLG8VOYQtVnQBl-EGectG8C-3DOVdLldUy_sCQISMZonHKRP3iJTmMEqil18waW5M0kqeOHR5-cJXzEvjvL9sNA3Ph35hXKz6ZNd6IwMsuAsexjlrsZ9ep7Alu4yPrDVujcLQKbP6cHPD1CevsN2g_J9vt-WlOzc5ki9aGkSNp0Sc4kCEwFOSNBk1c1n6obwTNEFMdvWGLcvnhO5ssdm_whykQgNL4kreIET1ddm-P9lAtYBiJcNkSIIVDgPne4ShBzrzmt8iVkdz3lJWjr6AxemLxq4xzZpxpL3ky6WEvDj8YT8oJnsOxZIp36sxDHZpSyacr4RiD-T79zA-gANsYQ3C3HiLXbvpsqqXlEvnTIljmjdUStHuddtUaMMmmuqnx7VK_0q0STjQU7u5Un15QPkufdOj6xqVfsDkL3ERm00]--></g></svg>